<svg width="141" height="25" viewBox="0 0 141 25" fill="none" xmlns="http://www.w3.org/2000/svg">
<path d="M2.864 24C2.032 24 1.392 23.776 0.944 23.328C0.496 22.88 0.272 22.24 0.272 21.408V4.032C0.272 3.2 0.496 2.56 0.944 2.112C1.392 1.664 2.032 1.44 2.864 1.44H9.104C12.9653 1.44 15.9413 2.42133 18.032 4.384C20.144 6.32533 21.2 9.09867 21.2 12.704C21.2 14.5173 20.9227 16.128 20.368 17.536C19.8347 18.9227 19.056 20.096 18.032 21.056C17.008 22.016 15.7493 22.752 14.256 23.264C12.7627 23.7547 11.0453 24 9.104 24H2.864ZM5.232 19.936H8.816C10.032 19.936 11.088 19.7867 11.984 19.488C12.88 19.1893 13.6267 18.7413 14.224 18.144C14.8213 17.5467 15.2693 16.8 15.568 15.904C15.8667 14.9867 16.016 13.92 16.016 12.704C16.016 10.272 15.408 8.46933 14.192 7.296C12.9973 6.10133 11.2053 5.504 8.816 5.504H5.232V19.936ZM90.1168 24.288C89.4341 24.288 88.8688 24.1387 88.4208 23.84C87.9941 23.52 87.6421 23.04 87.3648 22.4L79.3008 4.48C79.0021 3.84 78.9168 3.27467 79.0448 2.784C79.1728 2.272 79.4394 1.87733 79.8448 1.6C80.2501 1.30133 80.7408 1.152 81.3168 1.152C82.0421 1.152 82.5968 1.32267 82.9808 1.664C83.3648 1.984 83.6848 2.464 83.9408 3.104L91.0128 19.456H89.4128L96.4848 3.072C96.7621 2.432 97.0928 1.952 97.4768 1.632C97.8608 1.312 98.3941 1.152 99.0768 1.152C99.6528 1.152 100.122 1.30133 100.485 1.6C100.869 1.87733 101.103 2.272 101.189 2.784C101.295 3.27467 101.21 3.84 100.933 4.48L92.8688 22.4C92.5701 23.04 92.2074 23.52 91.7808 23.84C91.3754 24.1387 90.8208 24.288 90.1168 24.288Z" fill="#FFB72B"/>
<path d="M32.1892 24.352C30.5039 24.352 29.0319 24.0213 27.7733 23.36C26.5359 22.6987 25.5759 21.7493 24.8932 20.512C24.2106 19.2747 23.8693 17.8133 23.8693 16.128C23.8693 14.8693 24.0613 13.7387 24.4453 12.736C24.8293 11.7333 25.3839 10.88 26.1093 10.176C26.8559 9.45067 27.7413 8.90667 28.7653 8.544C29.7893 8.16 30.9306 7.968 32.1892 7.968C33.8746 7.968 35.3359 8.29867 36.5733 8.96C37.8319 9.62133 38.8026 10.56 39.4853 11.776C40.1893 12.992 40.5413 14.4427 40.5413 16.128C40.5413 17.408 40.3386 18.5493 39.9333 19.552C39.5493 20.5547 38.9946 21.4187 38.2693 22.144C37.5439 22.8693 36.6586 23.424 35.6133 23.808C34.5893 24.1707 33.4479 24.352 32.1892 24.352ZM32.1892 20.736C32.8933 20.736 33.5013 20.5653 34.0133 20.224C34.5253 19.8827 34.9306 19.3813 35.2293 18.72C35.5279 18.0373 35.6773 17.1733 35.6773 16.128C35.6773 14.5707 35.3573 13.4293 34.7173 12.704C34.0773 11.9573 33.2346 11.584 32.1892 11.584C31.5066 11.584 30.8986 11.744 30.3653 12.064C29.8533 12.384 29.4479 12.8853 29.1493 13.568C28.8719 14.2293 28.7333 15.0827 28.7333 16.128C28.7333 17.6853 29.0533 18.848 29.6933 19.616C30.3333 20.3627 31.1653 20.736 32.1892 20.736ZM45.913 24.288C45.1237 24.288 44.5157 24.0747 44.089 23.648C43.6837 23.2213 43.481 22.6133 43.481 21.824V10.464C43.481 9.67467 43.6837 9.07733 44.089 8.672C44.5157 8.24533 45.1023 8.032 45.849 8.032C46.617 8.032 47.2037 8.24533 47.609 8.672C48.0143 9.07733 48.217 9.67467 48.217 10.464V12.288L47.865 11.232C48.3557 10.1867 49.081 9.38667 50.041 8.832C51.0223 8.256 52.1317 7.968 53.369 7.968C54.6277 7.968 55.6623 8.21333 56.473 8.704C57.2837 9.17333 57.8917 9.89867 58.297 10.88C58.7023 11.84 58.905 13.0667 58.905 14.56V21.824C58.905 22.6133 58.6917 23.2213 58.265 23.648C57.8597 24.0747 57.2623 24.288 56.473 24.288C55.705 24.288 55.1077 24.0747 54.681 23.648C54.2757 23.2213 54.073 22.6133 54.073 21.824V14.784C54.073 13.696 53.8703 12.9173 53.465 12.448C53.081 11.9573 52.4837 11.712 51.673 11.712C50.649 11.712 49.8277 12.032 49.209 12.672C48.6117 13.312 48.313 14.1653 48.313 15.232V21.824C48.313 23.4667 47.513 24.288 45.913 24.288ZM67.8243 24.352C66.6723 24.352 65.6376 24.128 64.7203 23.68C63.8029 23.232 63.0883 22.624 62.5763 21.856C62.0643 21.088 61.8083 20.224 61.8083 19.264C61.8083 18.112 62.1069 17.2053 62.7043 16.544C63.3016 15.8613 64.2723 15.3813 65.6163 15.104C66.9603 14.8053 68.7416 14.656 70.9603 14.656H72.6563V17.152H70.9923C69.9043 17.152 69.0189 17.216 68.3363 17.344C67.6749 17.4507 67.1949 17.6427 66.8963 17.92C66.6189 18.1973 66.4803 18.5813 66.4803 19.072C66.4803 19.6693 66.6829 20.16 67.0883 20.544C67.5149 20.928 68.1229 21.12 68.9123 21.12C69.5309 21.12 70.0749 20.9813 70.5443 20.704C71.0349 20.4053 71.4189 20.0107 71.6963 19.52C71.9736 19.008 72.1123 18.432 72.1123 17.792V14.112C72.1123 13.1733 71.8989 12.512 71.4723 12.128C71.0456 11.7227 70.3203 11.52 69.2963 11.52C68.7203 11.52 68.0909 11.5947 67.4083 11.744C66.7469 11.872 66.0109 12.096 65.2003 12.416C64.7309 12.6293 64.3149 12.6827 63.9523 12.576C63.5896 12.448 63.3123 12.2347 63.1203 11.936C62.9283 11.616 62.8323 11.2747 62.8323 10.912C62.8323 10.528 62.9389 10.1653 63.1523 9.824C63.3656 9.46133 63.7176 9.19467 64.2083 9.024C65.2109 8.61867 66.1496 8.34133 67.0243 8.192C67.9203 8.04267 68.7416 7.968 69.4883 7.968C71.1309 7.968 72.4749 8.21333 73.5203 8.704C74.5869 9.17333 75.3869 9.90933 75.9203 10.912C76.4536 11.8933 76.7203 13.1627 76.7203 14.72V21.824C76.7203 22.6133 76.5283 23.2213 76.1443 23.648C75.7603 24.0747 75.2056 24.288 74.4803 24.288C73.7549 24.288 73.1896 24.0747 72.7843 23.648C72.4003 23.2213 72.2083 22.6133 72.2083 21.824V20.64L72.4323 20.832C72.3043 21.5573 72.0269 22.1867 71.6003 22.72C71.1949 23.232 70.6723 23.6373 70.0323 23.936C69.3923 24.2133 68.6563 24.352 67.8243 24.352ZM107.507 24.256C106.717 24.256 106.109 24.032 105.683 23.584C105.277 23.1147 105.075 22.464 105.075 21.632V10.688C105.075 9.83467 105.277 9.184 105.683 8.736C106.109 8.26667 106.717 8.032 107.507 8.032C108.275 8.032 108.861 8.26667 109.267 8.736C109.693 9.184 109.907 9.83467 109.907 10.688V21.632C109.907 22.464 109.704 23.1147 109.299 23.584C108.893 24.032 108.296 24.256 107.507 24.256ZM107.507 5.408C106.611 5.408 105.917 5.20533 105.427 4.8C104.957 4.37333 104.723 3.776 104.723 3.008C104.723 2.21867 104.957 1.62133 105.427 1.216C105.917 0.789332 106.611 0.575998 107.507 0.575998C108.403 0.575998 109.085 0.789332 109.555 1.216C110.024 1.62133 110.259 2.21867 110.259 3.008C110.259 3.776 110.024 4.37333 109.555 4.8C109.085 5.20533 108.403 5.408 107.507 5.408ZM121.349 24.352C119.877 24.352 118.64 24.1067 117.637 23.616C116.656 23.1253 115.92 22.4107 115.429 21.472C114.96 20.5333 114.725 19.3493 114.725 17.92V11.904H113.381C112.784 11.904 112.315 11.744 111.973 11.424C111.653 11.104 111.493 10.6667 111.493 10.112C111.493 9.51467 111.653 9.06667 111.973 8.768C112.315 8.448 112.784 8.288 113.381 8.288H114.725V5.856C114.725 5.04533 114.939 4.43733 115.365 4.032C115.792 3.60533 116.389 3.392 117.157 3.392C117.947 3.392 118.544 3.60533 118.949 4.032C119.355 4.43733 119.557 5.04533 119.557 5.856V8.288H122.597C123.195 8.288 123.653 8.448 123.973 8.768C124.293 9.06667 124.453 9.51467 124.453 10.112C124.453 10.6667 124.293 11.104 123.973 11.424C123.653 11.744 123.195 11.904 122.597 11.904H119.557V17.728C119.557 18.624 119.76 19.296 120.165 19.744C120.592 20.192 121.264 20.416 122.181 20.416C122.501 20.416 122.8 20.384 123.077 20.32C123.355 20.256 123.611 20.2133 123.845 20.192C124.144 20.1707 124.389 20.2667 124.581 20.48C124.773 20.672 124.869 21.1093 124.869 21.792C124.869 22.304 124.784 22.752 124.613 23.136C124.443 23.52 124.144 23.7973 123.717 23.968C123.44 24.0747 123.056 24.16 122.565 24.224C122.096 24.3093 121.691 24.352 121.349 24.352ZM131.887 24.352C130.735 24.352 129.7 24.128 128.783 23.68C127.865 23.232 127.151 22.624 126.639 21.856C126.127 21.088 125.871 20.224 125.871 19.264C125.871 18.112 126.169 17.2053 126.767 16.544C127.364 15.8613 128.335 15.3813 129.679 15.104C131.023 14.8053 132.804 14.656 135.023 14.656H136.719V17.152H135.055C133.967 17.152 133.081 17.216 132.399 17.344C131.737 17.4507 131.257 17.6427 130.959 17.92C130.681 18.1973 130.543 18.5813 130.543 19.072C130.543 19.6693 130.745 20.16 131.151 20.544C131.577 20.928 132.185 21.12 132.975 21.12C133.593 21.12 134.137 20.9813 134.607 20.704C135.097 20.4053 135.481 20.0107 135.759 19.52C136.036 19.008 136.175 18.432 136.175 17.792V14.112C136.175 13.1733 135.961 12.512 135.535 12.128C135.108 11.7227 134.383 11.52 133.359 11.52C132.783 11.52 132.153 11.5947 131.471 11.744C130.809 11.872 130.073 12.096 129.263 12.416C128.793 12.6293 128.377 12.6827 128.015 12.576C127.652 12.448 127.375 12.2347 127.183 11.936C126.991 11.616 126.895 11.2747 126.895 10.912C126.895 10.528 127.001 10.1653 127.215 9.824C127.428 9.46133 127.78 9.19467 128.271 9.024C129.273 8.61867 130.212 8.34133 131.087 8.192C131.983 8.04267 132.804 7.968 133.551 7.968C135.193 7.968 136.537 8.21333 137.583 8.704C138.649 9.17333 139.449 9.90933 139.983 10.912C140.516 11.8933 140.783 13.1627 140.783 14.72V21.824C140.783 22.6133 140.591 23.2213 140.207 23.648C139.823 24.0747 139.268 24.288 138.543 24.288C137.817 24.288 137.252 24.0747 136.847 23.648C136.463 23.2213 136.271 22.6133 136.271 21.824V20.64L136.495 20.832C136.367 21.5573 136.089 22.1867 135.663 22.72C135.257 23.232 134.735 23.6373 134.095 23.936C133.455 24.2133 132.719 24.352 131.887 24.352Z" fill="#1F8B7A"/>
</svg>
