<svg width="151" height="17" viewBox="0 0 151 17" fill="none" xmlns="http://www.w3.org/2000/svg">
<path d="M2.75781 1.625L4.98438 6.6875L7.22656 1.625H9.97656L6.28125 8.89062V13H3.69531V8.89062L-0.0078125 1.625H2.75781ZM9.92969 8.85938V8.69531C9.92969 8.07552 10.0182 7.50521 10.1953 6.98438C10.3724 6.45833 10.6328 6.0026 10.9766 5.61719C11.3203 5.23177 11.7422 4.93229 12.2422 4.71875C12.7422 4.5 13.3151 4.39062 13.9609 4.39062C14.6172 4.39062 15.1953 4.5 15.6953 4.71875C16.2005 4.93229 16.625 5.23177 16.9688 5.61719C17.3125 6.0026 17.5729 6.45833 17.75 6.98438C17.9271 7.50521 18.0156 8.07552 18.0156 8.69531V8.85938C18.0156 9.47396 17.9271 10.0443 17.75 10.5703C17.5729 11.0911 17.3125 11.5469 16.9688 11.9375C16.625 12.3229 16.2031 12.6224 15.7031 12.8359C15.2031 13.0495 14.6276 13.1562 13.9766 13.1562C13.3307 13.1562 12.7552 13.0495 12.25 12.8359C11.7448 12.6224 11.3203 12.3229 10.9766 11.9375C10.6328 11.5469 10.3724 11.0911 10.1953 10.5703C10.0182 10.0443 9.92969 9.47396 9.92969 8.85938ZM12.375 8.69531V8.85938C12.375 9.19271 12.401 9.50521 12.4531 9.79688C12.5104 10.0885 12.6016 10.3438 12.7266 10.5625C12.8516 10.7812 13.0156 10.9531 13.2188 11.0781C13.4271 11.1979 13.6797 11.2578 13.9766 11.2578C14.2734 11.2578 14.5234 11.1979 14.7266 11.0781C14.9297 10.9531 15.0938 10.7812 15.2188 10.5625C15.3438 10.3438 15.4323 10.0885 15.4844 9.79688C15.5417 9.50521 15.5703 9.19271 15.5703 8.85938V8.69531C15.5703 8.36719 15.5417 8.0599 15.4844 7.77344C15.4323 7.48177 15.3438 7.22396 15.2188 7C15.0938 6.77604 14.9271 6.60156 14.7188 6.47656C14.5156 6.35156 14.263 6.28906 13.9609 6.28906C13.6693 6.28906 13.4219 6.35156 13.2188 6.47656C13.0156 6.60156 12.8516 6.77604 12.7266 7C12.6016 7.22396 12.5104 7.48177 12.4531 7.77344C12.401 8.0599 12.375 8.36719 12.375 8.69531ZM24.2578 10.9609V4.54688H26.7109V13H24.4141L24.2578 10.9609ZM24.5156 9.23438L25.1875 9.21875C25.1875 9.78646 25.1198 10.3099 24.9844 10.7891C24.8542 11.2682 24.6562 11.6849 24.3906 12.0391C24.1302 12.3932 23.8047 12.6693 23.4141 12.8672C23.0286 13.0599 22.5781 13.1562 22.0625 13.1562C21.6458 13.1562 21.263 13.099 20.9141 12.9844C20.5703 12.8646 20.2734 12.6797 20.0234 12.4297C19.7734 12.1745 19.5807 11.849 19.4453 11.4531C19.3099 11.0521 19.2422 10.5729 19.2422 10.0156V4.54688H21.6797V10.0312C21.6797 10.25 21.7057 10.4375 21.7578 10.5938C21.8151 10.7448 21.8906 10.8698 21.9844 10.9688C22.0833 11.0677 22.2031 11.1406 22.3438 11.1875C22.4896 11.2344 22.6484 11.2578 22.8203 11.2578C23.2526 11.2578 23.5911 11.1693 23.8359 10.9922C24.0859 10.8099 24.2604 10.5677 24.3594 10.2656C24.4635 9.95833 24.5156 9.61458 24.5156 9.23438ZM30.7422 6.51562V13H28.3047V4.54688H30.5938L30.7422 6.51562ZM33.2656 4.48438L33.2266 6.75781C33.1224 6.74219 32.987 6.72917 32.8203 6.71875C32.6536 6.70312 32.5104 6.69531 32.3906 6.69531C32.0781 6.69531 31.8073 6.73438 31.5781 6.8125C31.3542 6.88542 31.1667 6.99479 31.0156 7.14062C30.8698 7.28646 30.7604 7.46875 30.6875 7.6875C30.6146 7.90104 30.5781 8.14844 30.5781 8.42969L30.1172 8.20312C30.1172 7.64583 30.1719 7.13542 30.2812 6.67188C30.3906 6.20833 30.5495 5.80729 30.7578 5.46875C30.9661 5.125 31.2214 4.85938 31.5234 4.67188C31.8255 4.48438 32.1693 4.39062 32.5547 4.39062C32.6797 4.39062 32.8073 4.39844 32.9375 4.41406C33.0677 4.42969 33.1771 4.45312 33.2656 4.48438ZM75.3906 4.54688V6.25781H70.375V4.54688H75.3906ZM71.5234 2.45312H73.9688V10.3516C73.9688 10.5859 73.9974 10.7656 74.0547 10.8906C74.112 11.0156 74.2057 11.1042 74.3359 11.1562C74.4661 11.2031 74.6328 11.2266 74.8359 11.2266C74.9818 11.2266 75.1068 11.2214 75.2109 11.2109C75.3151 11.2005 75.4115 11.1875 75.5 11.1719V12.9375C75.2917 13.0052 75.0703 13.0573 74.8359 13.0938C74.6016 13.1354 74.3464 13.1562 74.0703 13.1562C73.5443 13.1562 73.0885 13.0703 72.7031 12.8984C72.3229 12.7266 72.0312 12.4557 71.8281 12.0859C71.625 11.7109 71.5234 11.224 71.5234 10.625V2.45312ZM78.9453 1V13H76.5078V1H78.9453ZM78.625 8.47656L78.0156 8.49219C78.0156 7.89844 78.0885 7.35417 78.2344 6.85938C78.3854 6.35938 78.599 5.92448 78.875 5.55469C79.151 5.1849 79.4818 4.89844 79.8672 4.69531C80.2578 4.49219 80.6875 4.39062 81.1562 4.39062C81.5729 4.39062 81.9531 4.45052 82.2969 4.57031C82.6406 4.6901 82.9375 4.88021 83.1875 5.14062C83.4375 5.40104 83.6302 5.74219 83.7656 6.16406C83.901 6.58594 83.9688 7.09896 83.9688 7.70312V13H81.5156V7.6875C81.5156 7.32812 81.4635 7.04688 81.3594 6.84375C81.2604 6.64062 81.1146 6.4974 80.9219 6.41406C80.7344 6.33073 80.5052 6.28906 80.2344 6.28906C79.9167 6.28906 79.6536 6.34635 79.4453 6.46094C79.237 6.57031 79.0729 6.72396 78.9531 6.92188C78.8333 7.11979 78.7474 7.35156 78.6953 7.61719C78.6484 7.88281 78.625 8.16927 78.625 8.47656ZM89.5469 13.1562C88.875 13.1562 88.2734 13.0495 87.7422 12.8359C87.2109 12.6224 86.7604 12.3281 86.3906 11.9531C86.026 11.5729 85.7474 11.1354 85.5547 10.6406C85.362 10.1458 85.2656 9.61719 85.2656 9.05469V8.75781C85.2656 8.1276 85.3542 7.54688 85.5312 7.01562C85.7083 6.48438 85.9661 6.02344 86.3047 5.63281C86.6484 5.23698 87.0703 4.93229 87.5703 4.71875C88.0703 4.5 88.6406 4.39062 89.2812 4.39062C89.8802 4.39062 90.4141 4.48958 90.8828 4.6875C91.3516 4.88021 91.7474 5.15885 92.0703 5.52344C92.3932 5.88281 92.638 6.31771 92.8047 6.82812C92.9766 7.33333 93.0625 7.90104 93.0625 8.53125V9.53125H86.25V7.96094H90.6719V7.77344C90.6719 7.47656 90.6172 7.21615 90.5078 6.99219C90.4036 6.76823 90.2474 6.59635 90.0391 6.47656C89.8359 6.35156 89.5781 6.28906 89.2656 6.28906C88.9688 6.28906 88.7214 6.35156 88.5234 6.47656C88.3255 6.60156 88.1667 6.77865 88.0469 7.00781C87.9323 7.23177 87.849 7.49479 87.7969 7.79688C87.7448 8.09375 87.7188 8.41406 87.7188 8.75781V9.05469C87.7188 9.38281 87.763 9.68229 87.8516 9.95312C87.9401 10.224 88.0703 10.4557 88.2422 10.6484C88.4141 10.8411 88.6224 10.9922 88.8672 11.1016C89.112 11.2109 89.3906 11.2656 89.7031 11.2656C90.0885 11.2656 90.4557 11.1927 90.8047 11.0469C91.1536 10.8958 91.4557 10.6615 91.7109 10.3438L92.8516 11.6484C92.6797 11.8984 92.4375 12.1406 92.125 12.375C91.8177 12.6042 91.4479 12.7917 91.0156 12.9375C90.5833 13.0833 90.0938 13.1562 89.5469 13.1562ZM96.8203 4.54688V13H94.375V4.54688H96.8203ZM94.2266 2.35938C94.2266 2.00521 94.3516 1.71615 94.6016 1.49219C94.8516 1.26302 95.1797 1.14844 95.5859 1.14844C95.9922 1.14844 96.3203 1.26302 96.5703 1.49219C96.8255 1.71615 96.9531 2.00521 96.9531 2.35938C96.9531 2.70833 96.8255 2.9974 96.5703 3.22656C96.3203 3.45052 95.9922 3.5625 95.5859 3.5625C95.1797 3.5625 94.8516 3.45052 94.6016 3.22656C94.3516 2.9974 94.2266 2.70833 94.2266 2.35938ZM101.023 6.51562V13H98.5859V4.54688H100.875L101.023 6.51562ZM103.547 4.48438L103.508 6.75781C103.404 6.74219 103.268 6.72917 103.102 6.71875C102.935 6.70312 102.792 6.69531 102.672 6.69531C102.359 6.69531 102.089 6.73438 101.859 6.8125C101.635 6.88542 101.448 6.99479 101.297 7.14062C101.151 7.28646 101.042 7.46875 100.969 7.6875C100.896 7.90104 100.859 8.14844 100.859 8.42969L100.398 8.20312C100.398 7.64583 100.453 7.13542 100.562 6.67188C100.672 6.20833 100.831 5.80729 101.039 5.46875C101.247 5.125 101.503 4.85938 101.805 4.67188C102.107 4.48438 102.451 4.39062 102.836 4.39062C102.961 4.39062 103.089 4.39844 103.219 4.41406C103.349 4.42969 103.458 4.45312 103.547 4.48438Z" fill="#1F8B7A"/>
<path d="M43.5781 4.54688H45.7969V12.6953C45.7969 13.4714 45.6198 14.1302 45.2656 14.6719C44.9167 15.2135 44.4297 15.625 43.8047 15.9062C43.1797 16.1875 42.4479 16.3281 41.6094 16.3281C41.2448 16.3281 40.8646 16.2786 40.4688 16.1797C40.0729 16.0859 39.7005 15.9427 39.3516 15.75C39.0026 15.5625 38.7109 15.3229 38.4766 15.0312L39.5156 13.5938C39.7552 13.8646 40.0417 14.0833 40.375 14.25C40.7083 14.4219 41.0885 14.5078 41.5156 14.5078C41.9062 14.5078 42.237 14.4375 42.5078 14.2969C42.7786 14.1562 42.9844 13.9505 43.125 13.6797C43.2708 13.4089 43.3438 13.0807 43.3438 12.6953V6.52344L43.5781 4.54688ZM37.9297 8.875V8.71094C37.9297 8.07031 38.0078 7.48698 38.1641 6.96094C38.3203 6.42969 38.5469 5.97396 38.8438 5.59375C39.1458 5.20833 39.5078 4.91146 39.9297 4.70312C40.3568 4.49479 40.8359 4.39062 41.3672 4.39062C41.9401 4.39062 42.4141 4.5 42.7891 4.71875C43.1641 4.93229 43.4688 5.23438 43.7031 5.625C43.9375 6.01042 44.1224 6.46615 44.2578 6.99219C44.3932 7.51302 44.5026 8.07812 44.5859 8.6875V8.96875C44.5026 9.55208 44.3828 10.0964 44.2266 10.6016C44.0703 11.1068 43.8672 11.5521 43.6172 11.9375C43.3672 12.3177 43.0547 12.6172 42.6797 12.8359C42.3099 13.0495 41.8672 13.1562 41.3516 13.1562C40.8255 13.1562 40.3516 13.0495 39.9297 12.8359C39.5078 12.6224 39.1458 12.3229 38.8438 11.9375C38.5469 11.5521 38.3203 11.099 38.1641 10.5781C38.0078 10.0573 37.9297 9.48958 37.9297 8.875ZM40.3672 8.71094V8.875C40.3672 9.20833 40.3984 9.51823 40.4609 9.80469C40.5286 10.0911 40.6276 10.3438 40.7578 10.5625C40.8932 10.7812 41.0599 10.9531 41.2578 11.0781C41.4609 11.1979 41.6979 11.2578 41.9688 11.2578C42.3646 11.2578 42.6849 11.1745 42.9297 11.0078C43.1797 10.8359 43.362 10.599 43.4766 10.2969C43.5964 9.99479 43.6589 9.64323 43.6641 9.24219V8.42188C43.6641 8.08854 43.6302 7.78906 43.5625 7.52344C43.4948 7.25781 43.3932 7.03385 43.2578 6.85156C43.1276 6.66927 42.9557 6.53125 42.7422 6.4375C42.5339 6.33854 42.2812 6.28906 41.9844 6.28906C41.7188 6.28906 41.4844 6.35156 41.2812 6.47656C41.0781 6.59635 40.9089 6.76562 40.7734 6.98438C40.638 7.20312 40.5365 7.46094 40.4688 7.75781C40.401 8.04948 40.3672 8.36719 40.3672 8.71094ZM49.9922 4.54688V13H47.5469V4.54688H49.9922ZM47.3984 2.35938C47.3984 2.00521 47.5234 1.71615 47.7734 1.49219C48.0234 1.26302 48.3516 1.14844 48.7578 1.14844C49.1641 1.14844 49.4922 1.26302 49.7422 1.49219C49.9974 1.71615 50.125 2.00521 50.125 2.35938C50.125 2.70833 49.9974 2.9974 49.7422 3.22656C49.4922 3.45052 49.1641 3.5625 48.7578 3.5625C48.3516 3.5625 48.0234 3.45052 47.7734 3.22656C47.5234 2.9974 47.3984 2.70833 47.3984 2.35938ZM54.7891 13H52.3359V3.82812C52.3359 3.17708 52.4635 2.63021 52.7188 2.1875C52.9792 1.74479 53.3464 1.40885 53.8203 1.17969C54.2943 0.950521 54.8542 0.835938 55.5 0.835938C55.724 0.835938 55.9323 0.851562 56.125 0.882812C56.3229 0.908854 56.5156 0.945312 56.7031 0.992188V2.8125C56.6042 2.78646 56.5026 2.76823 56.3984 2.75781C56.2943 2.7474 56.1693 2.74219 56.0234 2.74219C55.763 2.74219 55.5391 2.78385 55.3516 2.86719C55.1693 2.94531 55.0286 3.06771 54.9297 3.23438C54.8359 3.39583 54.7891 3.59375 54.7891 3.82812V13ZM56.4609 4.54688V6.25781H51.1016V4.54688H56.4609ZM61.8125 4.54688V6.25781H56.7969V4.54688H61.8125ZM57.9453 2.45312H60.3906V10.3516C60.3906 10.5859 60.4193 10.7656 60.4766 10.8906C60.5339 11.0156 60.6276 11.1042 60.7578 11.1562C60.888 11.2031 61.0547 11.2266 61.2578 11.2266C61.4036 11.2266 61.5286 11.2214 61.6328 11.2109C61.737 11.2005 61.8333 11.1875 61.9219 11.1719V12.9375C61.7135 13.0052 61.4922 13.0573 61.2578 13.0938C61.0234 13.1354 60.7682 13.1562 60.4922 13.1562C59.9661 13.1562 59.5104 13.0703 59.125 12.8984C58.7448 12.7266 58.4531 12.4557 58.25 12.0859C58.0469 11.7109 57.9453 11.224 57.9453 10.625V2.45312ZM65.3203 11.0547L65.3047 12.6484C65.3047 13.2526 65.1562 13.8542 64.8594 14.4531C64.5625 15.0573 64.1901 15.5521 63.7422 15.9375L62.4922 15.3203C62.612 15.0807 62.7344 14.8385 62.8594 14.5938C62.9896 14.3542 63.0964 14.0885 63.1797 13.7969C63.2682 13.5052 63.3125 13.1641 63.3125 12.7734V11.0547H65.3203ZM113.031 10.6484C113.031 10.4922 112.982 10.3542 112.883 10.2344C112.789 10.1146 112.617 10.0052 112.367 9.90625C112.122 9.80729 111.776 9.70833 111.328 9.60938C110.906 9.52083 110.513 9.40625 110.148 9.26562C109.784 9.11979 109.466 8.94531 109.195 8.74219C108.924 8.53385 108.714 8.28906 108.562 8.00781C108.411 7.72135 108.336 7.39583 108.336 7.03125C108.336 6.67708 108.411 6.34115 108.562 6.02344C108.719 5.70573 108.943 5.42448 109.234 5.17969C109.531 4.9349 109.891 4.74219 110.312 4.60156C110.74 4.46094 111.224 4.39062 111.766 4.39062C112.51 4.39062 113.154 4.50781 113.695 4.74219C114.237 4.97135 114.654 5.29427 114.945 5.71094C115.237 6.1224 115.383 6.59375 115.383 7.125H112.945C112.945 6.90625 112.904 6.71615 112.82 6.55469C112.737 6.39323 112.609 6.26823 112.438 6.17969C112.266 6.08594 112.039 6.03906 111.758 6.03906C111.539 6.03906 111.346 6.07812 111.18 6.15625C111.018 6.22917 110.891 6.33073 110.797 6.46094C110.708 6.59115 110.664 6.74219 110.664 6.91406C110.664 7.03385 110.69 7.14323 110.742 7.24219C110.799 7.33594 110.885 7.42448 111 7.50781C111.12 7.58594 111.273 7.65625 111.461 7.71875C111.654 7.78125 111.888 7.84115 112.164 7.89844C112.753 8.00781 113.289 8.16146 113.773 8.35938C114.263 8.55729 114.654 8.83073 114.945 9.17969C115.242 9.52865 115.391 9.98958 115.391 10.5625C115.391 10.9375 115.305 11.2812 115.133 11.5938C114.966 11.9062 114.724 12.1797 114.406 12.4141C114.089 12.6484 113.708 12.8307 113.266 12.9609C112.823 13.0911 112.323 13.1562 111.766 13.1562C110.969 13.1562 110.294 13.013 109.742 12.7266C109.19 12.4401 108.773 12.0807 108.492 11.6484C108.216 11.2109 108.078 10.763 108.078 10.3047H110.367C110.378 10.5859 110.448 10.8151 110.578 10.9922C110.714 11.1693 110.888 11.2995 111.102 11.3828C111.315 11.4609 111.555 11.5 111.82 11.5C112.086 11.5 112.307 11.4635 112.484 11.3906C112.661 11.3177 112.797 11.2188 112.891 11.0938C112.984 10.9635 113.031 10.8151 113.031 10.6484ZM119.195 6.32031V13H116.758V4.54688H119.047L119.195 6.32031ZM118.883 8.47656L118.266 8.49219C118.266 7.89844 118.336 7.35417 118.477 6.85938C118.622 6.35938 118.833 5.92448 119.109 5.55469C119.385 5.1849 119.727 4.89844 120.133 4.69531C120.544 4.49219 121.018 4.39062 121.555 4.39062C121.93 4.39062 122.271 4.44792 122.578 4.5625C122.885 4.67188 123.148 4.84635 123.367 5.08594C123.591 5.32031 123.763 5.6276 123.883 6.00781C124.003 6.38281 124.062 6.83333 124.062 7.35938V13H121.625V7.65625C121.625 7.28125 121.578 6.9974 121.484 6.80469C121.396 6.60677 121.266 6.47135 121.094 6.39844C120.922 6.32552 120.716 6.28906 120.477 6.28906C120.216 6.28906 119.984 6.34635 119.781 6.46094C119.583 6.57031 119.417 6.72396 119.281 6.92188C119.146 7.11979 119.044 7.35156 118.977 7.61719C118.914 7.88281 118.883 8.16927 118.883 8.47656ZM123.812 8.35156L123.039 8.41406C123.039 7.84115 123.107 7.3099 123.242 6.82031C123.378 6.33073 123.581 5.90625 123.852 5.54688C124.122 5.18229 124.458 4.89844 124.859 4.69531C125.266 4.49219 125.737 4.39062 126.273 4.39062C126.669 4.39062 127.029 4.44792 127.352 4.5625C127.68 4.67708 127.961 4.86198 128.195 5.11719C128.435 5.3724 128.62 5.70833 128.75 6.125C128.88 6.53646 128.945 7.04167 128.945 7.64062V13H126.492V7.64062C126.492 7.27083 126.445 6.98958 126.352 6.79688C126.263 6.60417 126.133 6.47135 125.961 6.39844C125.794 6.32552 125.594 6.28906 125.359 6.28906C125.099 6.28906 124.872 6.34375 124.68 6.45312C124.487 6.55729 124.326 6.70312 124.195 6.89062C124.065 7.07292 123.969 7.28906 123.906 7.53906C123.844 7.78906 123.812 8.0599 123.812 8.35156ZM133.148 4.54688V13H130.703V4.54688H133.148ZM130.555 2.35938C130.555 2.00521 130.68 1.71615 130.93 1.49219C131.18 1.26302 131.508 1.14844 131.914 1.14844C132.32 1.14844 132.648 1.26302 132.898 1.49219C133.154 1.71615 133.281 2.00521 133.281 2.35938C133.281 2.70833 133.154 2.9974 132.898 3.22656C132.648 3.45052 132.32 3.5625 131.914 3.5625C131.508 3.5625 131.18 3.45052 130.93 3.22656C130.68 2.9974 130.555 2.70833 130.555 2.35938ZM137.477 1V13H135.031V1H137.477ZM143.219 13.1562C142.547 13.1562 141.945 13.0495 141.414 12.8359C140.883 12.6224 140.432 12.3281 140.062 11.9531C139.698 11.5729 139.419 11.1354 139.227 10.6406C139.034 10.1458 138.938 9.61719 138.938 9.05469V8.75781C138.938 8.1276 139.026 7.54688 139.203 7.01562C139.38 6.48438 139.638 6.02344 139.977 5.63281C140.32 5.23698 140.742 4.93229 141.242 4.71875C141.742 4.5 142.312 4.39062 142.953 4.39062C143.552 4.39062 144.086 4.48958 144.555 4.6875C145.023 4.88021 145.419 5.15885 145.742 5.52344C146.065 5.88281 146.31 6.31771 146.477 6.82812C146.648 7.33333 146.734 7.90104 146.734 8.53125V9.53125H139.922V7.96094H144.344V7.77344C144.344 7.47656 144.289 7.21615 144.18 6.99219C144.076 6.76823 143.919 6.59635 143.711 6.47656C143.508 6.35156 143.25 6.28906 142.938 6.28906C142.641 6.28906 142.393 6.35156 142.195 6.47656C141.997 6.60156 141.839 6.77865 141.719 7.00781C141.604 7.23177 141.521 7.49479 141.469 7.79688C141.417 8.09375 141.391 8.41406 141.391 8.75781V9.05469C141.391 9.38281 141.435 9.68229 141.523 9.95312C141.612 10.224 141.742 10.4557 141.914 10.6484C142.086 10.8411 142.294 10.9922 142.539 11.1016C142.784 11.2109 143.062 11.2656 143.375 11.2656C143.76 11.2656 144.128 11.1927 144.477 11.0469C144.826 10.8958 145.128 10.6615 145.383 10.3438L146.523 11.6484C146.352 11.8984 146.109 12.1406 145.797 12.375C145.49 12.6042 145.12 12.7917 144.688 12.9375C144.255 13.0833 143.766 13.1562 143.219 13.1562ZM148.055 11.8438C148.055 11.4896 148.18 11.1927 148.43 10.9531C148.685 10.7135 149.016 10.5938 149.422 10.5938C149.833 10.5938 150.161 10.7135 150.406 10.9531C150.656 11.1927 150.781 11.4896 150.781 11.8438C150.781 12.1927 150.656 12.487 150.406 12.7266C150.161 12.9661 149.833 13.0859 149.422 13.0859C149.016 13.0859 148.685 12.9661 148.43 12.7266C148.18 12.487 148.055 12.1927 148.055 11.8438Z" fill="#FFB72B"/>
</svg>
