<svg width="50" height="50" viewBox="0 0 50 50" fill="none" xmlns="http://www.w3.org/2000/svg">
<g clip-path="url(#clip0_74_98)">
<path d="M7.32495 42.675C4.9372 40.3688 3.03264 37.6102 1.72242 34.5601C0.412194 31.51 -0.277462 28.2295 -0.306307 24.91C-0.335152 21.5905 0.29739 18.2985 1.55441 15.2261C2.81143 12.1537 4.66776 9.36243 7.01508 7.01511C9.3624 4.66779 12.1537 2.81146 15.2261 1.55444C18.2985 0.297421 21.5905 -0.335122 24.91 -0.306277C28.2295 -0.277431 31.51 0.412225 34.5601 1.72245C37.6102 3.03267 40.3688 4.93723 42.675 7.32499C47.2289 12.04 49.7488 18.3551 49.6918 24.91C49.6348 31.4649 47.0056 37.7352 42.3704 42.3704C37.7352 47.0057 31.4649 49.6349 24.91 49.6918C18.3551 49.7488 12.04 47.2289 7.32495 42.675ZM39.15 39.15C42.9028 35.3972 45.0111 30.3073 45.0111 25C45.0111 19.6927 42.9028 14.6028 39.15 10.85C35.3971 7.09717 30.3072 4.98886 25 4.98886C19.6927 4.98886 14.6028 7.09717 10.85 10.85C7.09714 14.6028 4.98883 19.6927 4.98883 25C4.98883 30.3073 7.09714 35.3972 10.85 39.15C14.6028 42.9028 19.6927 45.0111 25 45.0111C30.3072 45.0111 35.3971 42.9028 39.15 39.15ZM22.5 12.5H27.5V27.5H22.5V12.5ZM22.5 32.5H27.5V37.5H22.5V32.5Z" fill="#FFB72B"/>
</g>
<defs>
<clipPath id="clip0_74_98">
<rect width="50" height="50" fill="white"/>
</clipPath>
</defs>
</svg>
